<svg width="9" height="10" viewBox="0 0 9 10" fill="none" xmlns="http://www.w3.org/2000/svg">
<path d="M4.16679 8.33334C5.05084 8.33334 5.89869 7.98215 6.52381 7.35703C7.14893 6.73191 7.50012 5.88407 7.50012 5.00001C7.50012 4.11596 7.14893 3.26811 6.52381 2.64299C5.89869 2.01787 5.05084 1.66668 4.16679 1.66668C3.28273 1.66668 2.43489 2.01787 1.80977 2.64299C1.18464 3.26811 0.833455 4.11596 0.833455 5.00001C0.833455 5.88407 1.18464 6.73191 1.80977 7.35703C2.43489 7.98215 3.28273 8.33334 4.16679 8.33334ZM4.16679 0.833344C4.71396 0.833344 5.25578 0.941118 5.7613 1.15051C6.26683 1.35991 6.72616 1.66682 7.11307 2.05373C7.49998 2.44064 7.80689 2.89997 8.01629 3.4055C8.22568 3.91102 8.33346 4.45284 8.33346 5.00001C8.33346 6.10508 7.89447 7.16489 7.11307 7.94629C6.33167 8.72769 5.27186 9.16668 4.16679 9.16668C1.86262 9.16668 0.00012207 7.29168 0.00012207 5.00001C0.00012207 3.89494 0.439109 2.83513 1.22051 2.05373C2.00191 1.27233 3.06172 0.833344 4.16679 0.833344ZM4.37512 2.91668V5.10418L6.25012 6.21668L5.93762 6.72918L3.75012 5.41668V2.91668H4.37512Z" fill="black"/>
</svg>
