<svg width="14" height="13" viewBox="0 0 14 13" fill="none" xmlns="http://www.w3.org/2000/svg">
<path d="M6.90008 10.3667L6.83341 10.4333L6.76008 10.3667C3.59341 7.49333 1.50008 5.59333 1.50008 3.66667C1.50008 2.33333 2.50008 1.33333 3.83341 1.33333C4.86008 1.33333 5.86008 2 6.21341 2.90667H7.45341C7.80675 2 8.80675 1.33333 9.83341 1.33333C11.1667 1.33333 12.1667 2.33333 12.1667 3.66667C12.1667 5.59333 10.0734 7.49333 6.90008 10.3667ZM9.83341 0C8.67341 0 7.56008 0.54 6.83341 1.38667C6.10675 0.54 4.99341 0 3.83341 0C1.78008 0 0.166748 1.60667 0.166748 3.66667C0.166748 6.18 2.43341 8.24 5.86675 11.3533L6.83341 12.2333L7.80008 11.3533C11.2334 8.24 13.5001 6.18 13.5001 3.66667C13.5001 1.60667 11.8867 0 9.83341 0Z" fill="black"/>
</svg>
