<svg width="8" height="8" viewBox="0 0 8 8" fill="none" xmlns="http://www.w3.org/2000/svg">
<path d="M4.16671 3.99999C3.70837 3.99999 3.31601 3.8368 2.98962 3.51041C2.66324 3.18402 2.50004 2.79166 2.50004 2.33332C2.50004 1.87499 2.66324 1.48263 2.98962 1.15624C3.31601 0.829851 3.70837 0.666656 4.16671 0.666656C4.62504 0.666656 5.0174 0.829851 5.34379 1.15624C5.67018 1.48263 5.83337 1.87499 5.83337 2.33332C5.83337 2.79166 5.67018 3.18402 5.34379 3.51041C5.0174 3.8368 4.62504 3.99999 4.16671 3.99999ZM0.833374 7.33332V6.16666C0.833374 5.93055 0.894207 5.71346 1.01587 5.51541C1.13754 5.31735 1.29893 5.16638 1.50004 5.06249C1.9306 4.84721 2.3681 4.68568 2.81254 4.57791C3.25699 4.47013 3.70837 4.41638 4.16671 4.41666C4.62504 4.41666 5.07643 4.47055 5.52087 4.57832C5.96532 4.6861 6.40282 4.84749 6.83337 5.06249C7.03476 5.16666 7.19629 5.31777 7.31796 5.51582C7.43962 5.71388 7.50032 5.93082 7.50004 6.16666V7.33332H0.833374Z" fill="black"/>
</svg>
